<svg xmlns="http://www.w3.org/2000/svg" width="32" height="32" viewBox="0 0 32 32">
  <defs>
    <path id="tools" d="M21.3,13.3l-6.8,6.8c-0.3,0.3-0.3,0.8,0,1.1l1.4,1.4c0.3,0.3,0.8,0.3,1.1,0l6.8-6.8 c0.3-0.3,0.3-0.8,0-1.1l-1.4-1.4C22.1,13,21.6,13,21.3,13.3z M13.9,20.7l-1.4-1.4c-0.3-0.3-0.8-0.3-1.1,0l-2.6,2.6 c-0.3,0.3-0.3,0.8,0,1.1l1.4,1.4c0.3,0.3,0.8,0.3,1.1,0l2.6-2.6C14.2,21.5,14.2,21,13.9,20.7z M24.9,7.1c-2-2-5.2-2-7.2,0l-2.3,2.3 c-0.3,0.3-0.3,0.8,0,1.1l6.1,6.1c0.3,0.3,0.8,0.3,1.1,0l2.3-2.3C26.9,12.3,26.9,9.1,24.9,7.1z M9.1,24.9c-2,2-5.2,2-7.2,0 c-2-2-2-5.2,0-7.2l2.3-2.3c0.3-0.3,0.8-0.3,1.1,0l6.1,6.1c0.3,0.3,0.3,0.8,0,1.1L9.1,24.9z"/>
  </defs>
  <rect width="32" height="32" rx="8" fill="#2563EB" transform="rotate(-12 16 16)"/>
  <use href="#tools" fill="white" transform="translate(4 4) scale(0.75)"/>
</svg> 